<svg width="146" height="45" viewBox="0 0 146 45" fill="none" xmlns="http://www.w3.org/2000/svg">
<rect x="1" y="2" width="42" height="42" rx="21" fill="#F9F5FF"/>
<path d="M13.2237 29V17.3636H17.4851C18.3108 17.3636 18.9946 17.5 19.5362 17.7727C20.0779 18.0417 20.4832 18.4072 20.7521 18.8693C21.0211 19.3277 21.1555 19.8447 21.1555 20.4205C21.1555 20.9053 21.0665 21.3144 20.8885 21.6477C20.7105 21.9773 20.4718 22.2424 20.1726 22.4432C19.8771 22.6402 19.5514 22.7841 19.1953 22.875V22.9886C19.5817 23.0076 19.9586 23.1326 20.326 23.3636C20.6972 23.5909 21.004 23.9148 21.2464 24.3352C21.4889 24.7557 21.6101 25.267 21.6101 25.8693C21.6101 26.464 21.4699 26.9981 21.1896 27.4716C20.9131 27.9413 20.4851 28.3144 19.9055 28.5909C19.326 28.8636 18.5855 29 17.6839 29H13.2237ZM14.9794 27.4943H17.5135C18.3544 27.4943 18.9567 27.3314 19.3203 27.0057C19.6839 26.6799 19.8658 26.2727 19.8658 25.7841C19.8658 25.4167 19.773 25.0795 19.5874 24.7727C19.4018 24.4659 19.1366 24.2216 18.7919 24.0398C18.451 23.858 18.0457 23.767 17.576 23.767H14.9794V27.4943ZM14.9794 22.3977H17.3317C17.7256 22.3977 18.0798 22.322 18.3942 22.1705C18.7124 22.0189 18.9643 21.8068 19.1499 21.5341C19.3393 21.2576 19.4339 20.9318 19.4339 20.5568C19.4339 20.0758 19.2654 19.6723 18.9283 19.3466C18.5911 19.0208 18.0741 18.858 17.3771 18.858H14.9794V22.3977ZM23.6925 29V17.3636H30.9879V18.875H25.4482V22.4205H30.6072V23.9261H25.4482V27.4886H31.0561V29H23.6925Z" fill="#7F56D9"/>
<rect x="1" y="2" width="42" height="42" rx="21" stroke="white" stroke-width="2"/>
<rect x="35" y="2" width="42" height="42" rx="21" fill="#F9F5FF"/>
<path d="M47.5582 29H45.6946L49.8821 17.3636H51.9105L56.098 29H54.2344L50.9446 19.4773H50.8537L47.5582 29ZM47.8707 24.4432H53.9162V25.9205H47.8707V24.4432ZM64.0312 20.4205C63.9706 19.8826 63.7206 19.4659 63.2812 19.1705C62.8419 18.8712 62.2888 18.7216 61.6222 18.7216C61.1449 18.7216 60.732 18.7973 60.3835 18.9489C60.035 19.0966 59.7642 19.3011 59.571 19.5625C59.3816 19.8201 59.2869 20.1136 59.2869 20.4432C59.2869 20.7197 59.3513 20.9583 59.4801 21.1591C59.6127 21.3598 59.785 21.5284 59.9972 21.6648C60.2131 21.7973 60.4441 21.9091 60.6903 22C60.9366 22.0871 61.1733 22.1591 61.4006 22.2159L62.5369 22.5114C62.9081 22.6023 63.2888 22.7254 63.679 22.8807C64.0691 23.036 64.4309 23.2405 64.7642 23.4943C65.0975 23.7481 65.3665 24.0625 65.571 24.4375C65.7794 24.8125 65.8835 25.2614 65.8835 25.7841C65.8835 26.4432 65.7131 27.0284 65.3722 27.5398C65.035 28.0511 64.5445 28.4545 63.9006 28.75C63.2604 29.0455 62.4858 29.1932 61.5767 29.1932C60.7055 29.1932 59.9517 29.0549 59.3153 28.7784C58.679 28.5019 58.1809 28.1098 57.821 27.6023C57.4612 27.0909 57.2623 26.4848 57.2244 25.7841H58.9858C59.0199 26.2045 59.1563 26.5549 59.3949 26.8352C59.6373 27.1117 59.946 27.3182 60.321 27.4545C60.6998 27.5871 61.1146 27.6534 61.5653 27.6534C62.0616 27.6534 62.5028 27.5758 62.8892 27.4205C63.2794 27.2614 63.5862 27.0417 63.8097 26.7614C64.0331 26.4773 64.1449 26.1458 64.1449 25.767C64.1449 25.4223 64.0464 25.1402 63.8494 24.9205C63.6563 24.7008 63.393 24.5189 63.0597 24.375C62.7301 24.2311 62.357 24.1042 61.9403 23.9943L60.5653 23.6193C59.6335 23.3655 58.8949 22.9924 58.3494 22.5C57.8078 22.0076 57.5369 21.3561 57.5369 20.5455C57.5369 19.875 57.7188 19.2898 58.0824 18.7898C58.446 18.2898 58.9384 17.9015 59.5597 17.625C60.1809 17.3447 60.8816 17.2045 61.6619 17.2045C62.4498 17.2045 63.1449 17.3428 63.7472 17.6193C64.3532 17.8958 64.8305 18.2765 65.179 18.7614C65.5275 19.2424 65.7093 19.7955 65.7244 20.4205H64.0312Z" fill="#7F56D9"/>
<rect x="35" y="2" width="42" height="42" rx="21" stroke="white" stroke-width="2"/>
<rect x="69" y="1" width="42" height="42" rx="21" fill="#F9F5FF"/>
<path d="M80.1925 28V16.3636H81.9482V21.4205H87.7493V16.3636H89.5107V28H87.7493V22.9261H81.9482V28H80.1925ZM98.4141 19.4205C98.3535 18.8826 98.1035 18.4659 97.6641 18.1705C97.2247 17.8712 96.6716 17.7216 96.005 17.7216C95.5277 17.7216 95.1148 17.7973 94.7663 17.9489C94.4179 18.0966 94.147 18.3011 93.9538 18.5625C93.7644 18.8201 93.6697 19.1136 93.6697 19.4432C93.6697 19.7197 93.7341 19.9583 93.8629 20.1591C93.9955 20.3598 94.1679 20.5284 94.38 20.6648C94.5959 20.7973 94.8269 20.9091 95.0732 21C95.3194 21.0871 95.5561 21.1591 95.7834 21.2159L96.9197 21.5114C97.291 21.6023 97.6716 21.7254 98.0618 21.8807C98.4519 22.036 98.8137 22.2405 99.147 22.4943C99.4804 22.7481 99.7493 23.0625 99.9538 23.4375C100.162 23.8125 100.266 24.2614 100.266 24.7841C100.266 25.4432 100.096 26.0284 99.755 26.5398C99.4179 27.0511 98.9273 27.4545 98.2834 27.75C97.6432 28.0455 96.8686 28.1932 95.9595 28.1932C95.0883 28.1932 94.3345 28.0549 93.6982 27.7784C93.0618 27.5019 92.5637 27.1098 92.2038 26.6023C91.844 26.0909 91.6451 25.4848 91.6072 24.7841H93.3686C93.4027 25.2045 93.5391 25.5549 93.7777 25.8352C94.0201 26.1117 94.3288 26.3182 94.7038 26.4545C95.0826 26.5871 95.4974 26.6534 95.9482 26.6534C96.4444 26.6534 96.8857 26.5758 97.272 26.4205C97.6622 26.2614 97.969 26.0417 98.1925 25.7614C98.416 25.4773 98.5277 25.1458 98.5277 24.767C98.5277 24.4223 98.4292 24.1402 98.2322 23.9205C98.0391 23.7008 97.7758 23.5189 97.4425 23.375C97.1129 23.2311 96.7398 23.1042 96.3232 22.9943L94.9482 22.6193C94.0163 22.3655 93.2777 21.9924 92.7322 21.5C92.1906 21.0076 91.9197 20.3561 91.9197 19.5455C91.9197 18.875 92.1016 18.2898 92.4652 17.7898C92.8288 17.2898 93.3213 16.9015 93.9425 16.625C94.5637 16.3447 95.2644 16.2045 96.0447 16.2045C96.8326 16.2045 97.5277 16.3428 98.13 16.6193C98.736 16.8958 99.2133 17.2765 99.5618 17.7614C99.9103 18.2424 100.092 18.7955 100.107 19.4205H98.4141Z" fill="#7F56D9"/>
<rect x="69" y="1" width="42" height="42" rx="21" stroke="white" stroke-width="2"/>
<rect x="103" y="1" width="42" height="42" rx="21" fill="#F9F5FF"/>
<path d="M118.273 26.0455V18.3636H119.802V26.0455H118.273ZM115.2 22.9659V21.4432H122.881V22.9659H115.2ZM129.327 28.1591C128.615 28.1591 127.975 28.0227 127.407 27.75C126.843 27.4735 126.392 27.0947 126.055 26.6136C125.718 26.1326 125.538 25.5833 125.515 24.9659H127.219C127.261 25.4659 127.483 25.8769 127.884 26.1989C128.286 26.5208 128.767 26.6818 129.327 26.6818C129.774 26.6818 130.17 26.5795 130.515 26.375C130.863 26.1667 131.136 25.8807 131.333 25.517C131.534 25.1534 131.634 24.7386 131.634 24.2727C131.634 23.7992 131.532 23.3769 131.327 23.0057C131.123 22.6345 130.841 22.3428 130.481 22.1307C130.125 21.9186 129.716 21.8106 129.254 21.8068C128.901 21.8068 128.547 21.8674 128.191 21.9886C127.835 22.1098 127.547 22.2689 127.327 22.4659L125.719 22.2273L126.373 16.3636H132.771V17.8693H127.833L127.464 21.125H127.532C127.759 20.9053 128.06 20.7216 128.435 20.5739C128.814 20.4261 129.219 20.3523 129.651 20.3523C130.36 20.3523 130.99 20.5208 131.543 20.858C132.1 21.1951 132.538 21.6553 132.856 22.2386C133.178 22.8182 133.337 23.4848 133.333 24.2386C133.337 24.9924 133.166 25.6648 132.822 26.2557C132.481 26.8466 132.007 27.3125 131.401 27.6534C130.799 27.9905 130.108 28.1591 129.327 28.1591Z" fill="#7F56D9"/>
<rect x="103" y="1" width="42" height="42" rx="21" stroke="white" stroke-width="2"/>
</svg>
