<svg width="146" height="45" viewBox="0 0 146 45" fill="none" xmlns="http://www.w3.org/2000/svg">
<rect x="1" y="2" width="42" height="42" rx="21" fill="#F9F5FF"/>
<path d="M17.3949 17.3636H19.1449V25.6136C19.1449 26.3598 18.9972 26.9981 18.7017 27.5284C18.41 28.0587 17.9991 28.464 17.4688 28.7443C16.9384 29.0208 16.3172 29.1591 15.6051 29.1591C14.9498 29.1591 14.3608 29.0398 13.8381 28.8011C13.3191 28.5625 12.9081 28.2159 12.6051 27.7614C12.3059 27.303 12.1562 26.7462 12.1562 26.0909H13.9006C13.9006 26.4129 13.9744 26.6913 14.1222 26.9261C14.2737 27.161 14.4801 27.3447 14.7415 27.4773C15.0066 27.6061 15.3097 27.6705 15.6506 27.6705C16.0218 27.6705 16.3362 27.5928 16.5938 27.4375C16.8551 27.2784 17.054 27.0455 17.1903 26.7386C17.3267 26.4318 17.3949 26.0568 17.3949 25.6136V17.3636ZM29.5753 21.0398C29.4654 20.6951 29.3177 20.3864 29.1321 20.1136C28.9503 19.8371 28.7325 19.6023 28.4787 19.4091C28.2249 19.2121 27.9351 19.0625 27.6094 18.9602C27.2874 18.858 26.9332 18.8068 26.5469 18.8068C25.8916 18.8068 25.3007 18.9754 24.7741 19.3125C24.2476 19.6496 23.831 20.1439 23.5241 20.7955C23.2211 21.4432 23.0696 22.2367 23.0696 23.1761C23.0696 24.1193 23.223 24.9167 23.5298 25.5682C23.8366 26.2197 24.2571 26.714 24.7912 27.0511C25.3253 27.3883 25.9332 27.5568 26.6151 27.5568C27.2476 27.5568 27.7988 27.428 28.2685 27.1705C28.742 26.9129 29.1075 26.5492 29.3651 26.0795C29.6264 25.6061 29.7571 25.0492 29.7571 24.4091L30.2116 24.4943H26.8821V23.0455H31.456V24.3693C31.456 25.3466 31.2476 26.1951 30.831 26.9148C30.4181 27.6307 29.8461 28.1837 29.1151 28.5739C28.3878 28.964 27.5545 29.1591 26.6151 29.1591C25.562 29.1591 24.6378 28.9167 23.8423 28.4318C23.0507 27.947 22.4332 27.2595 21.9901 26.3693C21.5469 25.4754 21.3253 24.4148 21.3253 23.1875C21.3253 22.2595 21.4541 21.4261 21.7116 20.6875C21.9692 19.9489 22.331 19.322 22.7969 18.8068C23.2666 18.2879 23.8177 17.892 24.4503 17.6193C25.0866 17.3428 25.7817 17.2045 26.5355 17.2045C27.1643 17.2045 27.7495 17.2973 28.2912 17.483C28.8366 17.6686 29.3215 17.9318 29.7457 18.2727C30.1738 18.6136 30.5279 19.0189 30.8082 19.4886C31.0885 19.9545 31.2779 20.4716 31.3764 21.0398H29.5753Z" fill="#7F56D9"/>
<rect x="1" y="2" width="42" height="42" rx="21" stroke="white" stroke-width="2"/>
<rect x="35" y="2" width="42" height="42" rx="21" fill="#F9F5FF"/>
<path d="M50.2074 17.3636H51.9574V25.6136C51.9574 26.3598 51.8097 26.9981 51.5142 27.5284C51.2225 28.0587 50.8116 28.464 50.2812 28.7443C49.7509 29.0208 49.1297 29.1591 48.4176 29.1591C47.7623 29.1591 47.1733 29.0398 46.6506 28.8011C46.1316 28.5625 45.7206 28.2159 45.4176 27.7614C45.1184 27.303 44.9688 26.7462 44.9688 26.0909H46.7131C46.7131 26.4129 46.7869 26.6913 46.9347 26.9261C47.0862 27.161 47.2926 27.3447 47.554 27.4773C47.8191 27.6061 48.1222 27.6705 48.4631 27.6705C48.8343 27.6705 49.1487 27.5928 49.4062 27.4375C49.6676 27.2784 49.8665 27.0455 50.0028 26.7386C50.1392 26.4318 50.2074 26.0568 50.2074 25.6136V17.3636ZM54.5128 17.3636H56.6435L60.348 26.4091H60.4844L64.1889 17.3636H66.3196V29H64.6491V20.5795H64.5412L61.1094 28.983H59.723L56.2912 20.5739H56.1832V29H54.5128V17.3636Z" fill="#7F56D9"/>
<rect x="35" y="2" width="42" height="42" rx="21" stroke="white" stroke-width="2"/>
<rect x="69" y="1" width="42" height="42" rx="21" fill="#F9F5FF"/>
<path d="M88.0625 19.4205C88.0019 18.8826 87.7519 18.4659 87.3125 18.1705C86.8731 17.8712 86.3201 17.7216 85.6534 17.7216C85.1761 17.7216 84.7633 17.7973 84.4148 17.9489C84.0663 18.0966 83.7955 18.3011 83.6023 18.5625C83.4129 18.8201 83.3182 19.1136 83.3182 19.4432C83.3182 19.7197 83.3826 19.9583 83.5114 20.1591C83.6439 20.3598 83.8163 20.5284 84.0284 20.6648C84.2443 20.7973 84.4754 20.9091 84.7216 21C84.9678 21.0871 85.2045 21.1591 85.4318 21.2159L86.5682 21.5114C86.9394 21.6023 87.3201 21.7254 87.7102 21.8807C88.1004 22.036 88.4621 22.2405 88.7955 22.4943C89.1288 22.7481 89.3977 23.0625 89.6023 23.4375C89.8106 23.8125 89.9148 24.2614 89.9148 24.7841C89.9148 25.4432 89.7443 26.0284 89.4034 26.5398C89.0663 27.0511 88.5758 27.4545 87.9318 27.75C87.2917 28.0455 86.517 28.1932 85.608 28.1932C84.7367 28.1932 83.983 28.0549 83.3466 27.7784C82.7102 27.5019 82.2121 27.1098 81.8523 26.6023C81.4924 26.0909 81.2936 25.4848 81.2557 24.7841H83.017C83.0511 25.2045 83.1875 25.5549 83.4261 25.8352C83.6686 26.1117 83.9773 26.3182 84.3523 26.4545C84.7311 26.5871 85.1458 26.6534 85.5966 26.6534C86.0928 26.6534 86.5341 26.5758 86.9205 26.4205C87.3106 26.2614 87.6174 26.0417 87.8409 25.7614C88.0644 25.4773 88.1761 25.1458 88.1761 24.767C88.1761 24.4223 88.0777 24.1402 87.8807 23.9205C87.6875 23.7008 87.4242 23.5189 87.0909 23.375C86.7614 23.2311 86.3883 23.1042 85.9716 22.9943L84.5966 22.6193C83.6648 22.3655 82.9261 21.9924 82.3807 21.5C81.839 21.0076 81.5682 20.3561 81.5682 19.5455C81.5682 18.875 81.75 18.2898 82.1136 17.7898C82.4773 17.2898 82.9697 16.9015 83.5909 16.625C84.2121 16.3447 84.9129 16.2045 85.6932 16.2045C86.4811 16.2045 87.1761 16.3428 87.7784 16.6193C88.3845 16.8958 88.8617 17.2765 89.2102 17.7614C89.5587 18.2424 89.7405 18.7955 89.7557 19.4205H88.0625ZM96.5355 16.3636H98.2855V24.6136C98.2855 25.3598 98.1378 25.9981 97.8423 26.5284C97.5507 27.0587 97.1397 27.464 96.6094 27.7443C96.0791 28.0208 95.4579 28.1591 94.7457 28.1591C94.0904 28.1591 93.5014 28.0398 92.9787 27.8011C92.4598 27.5625 92.0488 27.2159 91.7457 26.7614C91.4465 26.303 91.2969 25.7462 91.2969 25.0909H93.0412C93.0412 25.4129 93.1151 25.6913 93.2628 25.9261C93.4143 26.161 93.6207 26.3447 93.8821 26.4773C94.1473 26.6061 94.4503 26.6705 94.7912 26.6705C95.1624 26.6705 95.4768 26.5928 95.7344 26.4375C95.9957 26.2784 96.1946 26.0455 96.331 25.7386C96.4673 25.4318 96.5355 25.0568 96.5355 24.6136V16.3636Z" fill="#7F56D9"/>
<rect x="69" y="1" width="42" height="42" rx="21" stroke="white" stroke-width="2"/>
<rect x="103" y="1" width="42" height="42" rx="21" fill="#F9F5FF"/>
<path d="M118.156 26.0455V18.3636H119.685V26.0455H118.156ZM115.082 22.9659V21.4432H122.764V22.9659H115.082ZM129.264 28.1591C128.484 28.1591 127.787 28.0246 127.173 27.7557C126.563 27.4867 126.08 27.1136 125.724 26.6364C125.372 26.1553 125.183 25.5985 125.156 24.9659H126.94C126.963 25.3106 127.079 25.6098 127.287 25.8636C127.499 26.1136 127.776 26.3068 128.116 26.4432C128.457 26.5795 128.836 26.6477 129.253 26.6477C129.711 26.6477 130.116 26.5682 130.469 26.4091C130.825 26.25 131.103 26.0284 131.304 25.7443C131.505 25.4564 131.605 25.125 131.605 24.75C131.605 24.3598 131.505 24.017 131.304 23.7216C131.107 23.4223 130.817 23.1875 130.435 23.017C130.056 22.8466 129.598 22.7614 129.06 22.7614H128.077V21.3295H129.06C129.491 21.3295 129.87 21.2519 130.196 21.0966C130.526 20.9413 130.783 20.7254 130.969 20.4489C131.154 20.1686 131.247 19.8409 131.247 19.4659C131.247 19.1061 131.166 18.7936 131.003 18.5284C130.844 18.2595 130.616 18.0492 130.321 17.8977C130.029 17.7462 129.685 17.6705 129.287 17.6705C128.908 17.6705 128.554 17.7405 128.224 17.8807C127.899 18.017 127.634 18.214 127.429 18.4716C127.224 18.7254 127.115 19.0303 127.099 19.3864H125.401C125.42 18.7576 125.605 18.2045 125.957 17.7273C126.313 17.25 126.783 16.8769 127.366 16.608C127.95 16.339 128.598 16.2045 129.31 16.2045C130.056 16.2045 130.7 16.3504 131.241 16.642C131.787 16.9299 132.207 17.3144 132.503 17.7955C132.802 18.2765 132.95 18.803 132.946 19.375C132.95 20.0265 132.768 20.5795 132.401 21.0341C132.037 21.4886 131.552 21.7936 130.946 21.9489V22.0398C131.719 22.1572 132.317 22.464 132.741 22.9602C133.17 23.4564 133.382 24.072 133.378 24.8068C133.382 25.447 133.204 26.0208 132.844 26.5284C132.488 27.036 132.001 27.4356 131.384 27.7273C130.766 28.0152 130.06 28.1591 129.264 28.1591Z" fill="#7F56D9"/>
<rect x="103" y="1" width="42" height="42" rx="21" stroke="white" stroke-width="2"/>
</svg>
